Coordinates
version=1
nRows=5
nColumns=40
inDegrees=yes

Units are S.I. units (second, meters, Newtons, ...)
If the header above contains a line with 'inDegrees', this indicates whether rotational values are in degrees (yes) or radians (no).

endheader
time	pelvis_tilt	pelvis_list	pelvis_rotation	pelvis_tx	pelvis_ty	pelvis_tz	hip_flexion_r	hip_adduction_r	hip_rotation_r	knee_angle_r	knee_angle_r_beta	ankle_angle_r	subtalar_angle_r	mtp_angle_r	hip_flexion_l	hip_adduction_l	hip_rotation_l	knee_angle_l	knee_angle_l_beta	ankle_angle_l	subtalar_angle_l	mtp_angle_l	lumbar_extension	lumbar_bending	lumbar_rotation	arm_flex_r	arm_add_r	arm_rot_r	elbow_flex_r	pro_sup_r	wrist_flex_r	wrist_dev_r	arm_flex_l	arm_add_l	arm_rot_l	elbow_flex_l	pro_sup_l	wrist_flex_l	wrist_dev_l
     16.45000000	      5.16060458	     -1.25412824	    158.17375112	      0.40197215	      0.66764421	     -0.68099236	     72.63938903	     22.47013503	     10.73024754	     89.26785727	      1.55801803	     25.44964719	      0.00000000	      0.00000000	     67.38874401	    -36.79673129	    -11.65896402	     94.24577340	      1.64489905	     26.68956883	      0.00000000	      0.00000000	    -70.84323523	    -19.10542772	    -89.94392244	    -89.93617084	     89.99372511	    -89.93620976	      0.01836400	     89.81047988	      0.00000000	      0.00000000	    -83.65049596	      0.17438347	    -89.94018340	     75.81384589	     28.03861700	      0.00000000	      0.00000000
     16.45500000	      5.40607264	     -1.26553938	    158.16099968	      0.40098743	      0.66861097	     -0.68093168	     72.68620350	     22.44092417	     10.69701467	     89.05680330	      1.55433444	     25.45342404	      0.00000000	      0.00000000	     67.43717198	    -36.80241913	    -11.70437746	     94.07499928	      1.64191848	     26.70691828	      0.00000000	      0.00000000	    -70.78054964	    -19.12362566	    -89.94403494	    -89.93616823	     89.99372431	    -89.93620939	      0.01836037	     89.80850676	      0.00000000	      0.00000000	    -83.68826648	      0.14351266	    -89.94025306	     75.80424221	     28.03505287	      0.00000000	      0.00000000
     16.46000000	      5.58628135	     -1.23692440	    158.13697312	      0.39996060	      0.66941828	     -0.68083227	     72.70675692	     22.46182122	     10.66647294	     88.95048886	      1.55247890	     25.45318665	      0.00000000	      0.00000000	     67.48007163	    -36.83165655	    -11.69996140	     93.99807353	      1.64057587	     26.72454079	      0.00000000	      0.00000000	    -70.76373019	    -19.12356958	    -89.94377780	    -89.93614693	     89.99371860	    -89.93618711	      0.01838395	     89.81018232	      0.00000000	      0.00000000	    -83.70047646	      0.16169465	    -89.94028048	     75.77579284	     28.03216404	      0.00000000	      0.00000000
     16.46500000	      5.84670799	     -1.28065061	    158.11736509	      0.39912459	      0.67026460	     -0.68069996	     72.78694258	     22.44054930	     10.68006612	     88.72572811	      1.54855609	     25.45820566	      0.00000000	      0.00000000	     67.57258725	    -36.81808573	    -11.76443509	     93.82820664	      1.63761114	     26.74909697	      0.00000000	      0.00000000	    -70.67537648	    -19.13944454	    -89.94394221	    -89.93623060	     89.99372061	    -89.93627509	      0.01836936	     89.80870987	      0.00000000	      0.00000000	    -83.73503884	      0.13925440	    -89.94046114	     75.77831260	     28.03057412	      0.00000000	      0.00000000
     16.47000000	      5.98249525	     -1.22389415	    158.09571917	      0.39809684	      0.67093323	     -0.68060044	     72.78967657	     22.47392477	     10.64199271	     88.67998663	      1.54775775	     25.45786884	      0.00000000	      0.00000000	     67.60143429	    -36.86843578	    -11.73814696	     93.79998055	      1.63711850	     26.75909244	      0.00000000	      0.00000000	    -70.68051324	    -19.14238188	    -89.94436324	    -89.93623904	     89.99371138	    -89.93626563	      0.01841454	     89.80278894	      0.00000000	      0.00000000	    -83.75295998	      0.19311262	    -89.94036356	     75.73572154	     28.02685606	      0.00000000	      0.00000000
